<?xml version="1.0" encoding="UTF-8"?>
<svg version="1.1" xmlns="http://www.w3.org/2000/svg" width="666" height="700">
<path d="M0 0 C0.99 0.99 0.99 0.99 2 2 C1.71503662 2.58450928 1.43007324 3.16901855 1.13647461 3.77124023 C-5.11432642 16.62278823 -11.1889108 29.53533611 -17.0625 42.5625 C-22.78921128 55.25953182 -28.69065755 67.8658829 -34.6875 80.4375 C-41.41560323 94.54382658 -48.05430079 108.68355827 -54.56982422 122.88964844 C-57.17655204 128.55876971 -59.80792078 134.21645129 -62.4375 139.875 C-62.97810059 141.03870117 -63.51870117 142.20240234 -64.07568359 143.40136719 C-65.16998978 145.75688001 -66.26439109 148.11234864 -67.35888672 150.46777344 C-70.07384193 156.31126823 -72.78683877 162.15567209 -75.5 168 C-78.67919011 174.84788736 -81.85854138 181.69569947 -85.0390625 188.54296875 C-86.06772975 190.75780255 -87.09637525 192.97264646 -88.125 195.1875 C-88.64723145 196.31188477 -89.16946289 197.43626953 -89.70751953 198.59472656 C-92.98139526 205.64570456 -96.25024128 212.69899144 -99.515625 219.75390625 C-101.1352861 223.25266463 -102.75511 226.7513476 -104.375 230.25 C-104.78208191 231.12933197 -105.18916382 232.00866394 -105.60858154 232.91464233 C-111.25646526 245.11210809 -116.9449493 257.28960652 -122.66848755 269.45172119 C-127.62070226 279.98196452 -132.44658636 290.56574768 -137.2364502 301.1706543 C-142.7314419 313.32508185 -148.41879645 325.38243831 -154.15493774 337.42462158 C-159.38102853 348.40136274 -164.50304407 359.41713745 -169.5 370.5 C-174.9118072 382.500499 -180.47252037 394.42347537 -186.125 406.3125 C-186.89607907 407.9348137 -187.66715655 409.55712814 -188.43823242 411.17944336 C-188.81472427 411.97156723 -189.19121613 412.7636911 -189.57911682 413.57981873 C-189.95132858 414.3630098 -190.32354034 415.14620087 -190.70703125 415.953125 C-191.07541611 416.72821915 -191.44380096 417.50331329 -191.823349 418.30189514 C-201.84462921 439.40154318 -211.50245268 460.66046997 -221 482 C-221.66 482 -222.32 482 -223 482 C-223.41791085 477.88300806 -223.82606669 473.76517458 -224.22680664 469.64648438 C-224.36307455 468.25822547 -224.5015942 466.87018495 -224.64282227 465.48242188 C-225.53584682 456.6875808 -226.12400185 447.91942075 -226.44750977 439.08496094 C-226.96964058 425.80949041 -227.7628306 412.55606751 -228.59375 399.296875 C-228.74697369 396.8296982 -228.90008836 394.36251463 -229.05310059 391.89532471 C-229.37079764 386.78264916 -229.69037097 381.6700952 -230.01123047 376.55761719 C-230.42233781 370.00333864 -230.82770393 363.44871848 -231.23162079 356.89399338 C-231.54472135 351.82562042 -231.86124959 346.75746593 -232.17878723 341.6893692 C-232.32986419 339.2700856 -232.47976529 336.85072826 -232.62846375 334.4312973 C-232.83533945 331.07212809 -233.04693364 327.71328854 -233.25976562 324.35449219 C-233.3501989 322.86169739 -233.3501989 322.86169739 -233.44245911 321.33874512 C-233.53070198 319.96894501 -233.53070198 319.96894501 -233.62072754 318.57147217 C-233.67012733 317.78040447 -233.71952713 316.98933678 -233.77042389 316.17429733 C-233.99625346 314.03548314 -234.46163437 312.07835435 -235 310 C-235.04580493 308.41342094 -235.04217336 306.82506001 -235.00390625 305.23828125 C-234.94284984 298.55648923 -235.35313034 291.91827619 -235.79956055 285.25512695 C-235.93842518 283.17363212 -236.07014705 281.09176715 -236.20117188 279.00976562 C-236.28864118 277.66663916 -236.37651722 276.32353911 -236.46484375 274.98046875 C-236.543396 273.78317139 -236.62194824 272.58587402 -236.70288086 271.35229492 C-236.95280634 268.03651987 -236.95280634 268.03651987 -237.51586914 264.93115234 C-238.00582994 261.96470285 -238.18879131 259.12477164 -238.28125 256.12109375 C-238.31863281 255.03505859 -238.35601562 253.94902344 -238.39453125 252.83007812 C-238.46496507 250.56445689 -238.53527715 248.29883187 -238.60546875 246.03320312 C-238.64285156 244.94845703 -238.68023437 243.86371094 -238.71875 242.74609375 C-238.74904297 241.76310303 -238.77933594 240.7801123 -238.81054688 239.76733398 C-238.92936787 237.04991047 -238.92936787 237.04991047 -239.51306152 234.63832092 C-240.00099346 231.99461727 -240.05331819 229.70244346 -239.98046875 227.01953125 C-239.91216664 218.55135862 -240.54458175 210.13409836 -241.11117554 201.68960571 C-241.31652151 198.62753208 -241.51689402 195.56516671 -241.71606445 192.50268555 C-242.13973025 186.00150347 -242.56940711 179.50072647 -243 173 C-243.49949559 165.45903889 -243.99643815 157.9179273 -244.48690796 150.37637329 C-244.68317605 147.37854473 -244.88408365 144.38105118 -245.08520508 141.38354492 C-245.68698669 132.2461381 -246.22542594 123.16374354 -246 114 C-229.21962821 106.04907847 -212.42228375 98.14506929 -195.5 90.5 C-184.28496691 85.4329579 -173.12432457 80.26318115 -162 75 C-150.15149238 69.39440938 -138.25687847 63.90458643 -126.31298828 58.50537109 C-116.16944817 53.91828762 -106.07048166 49.2452386 -96 44.5 C-85.24695332 39.43313489 -74.45666995 34.45899733 -63.625 29.5625 C-48.5489986 22.74676904 -33.5759507 15.72247818 -18.62033081 8.64717102 C-12.43238832 5.72379218 -6.21994421 2.85467589 0 0 Z " fill="#F42CB2" transform="translate(256,5)"/>
<path d="M0 0 C12.11534993 5.34693288 24.1713645 10.80901484 36.1875 16.375 C37.88421401 17.15972353 39.58099296 17.94430669 41.27783203 18.72875977 C44.78392979 20.34974563 48.28975388 21.97132132 51.79541016 23.59326172 C56.78264514 25.9001407 61.77182221 28.20279093 66.76171875 30.50390625 C84.21018306 38.55075973 101.65073021 46.61443245 119.0824585 54.69747925 C131.54901048 60.47795135 144.0217692 66.24478459 156.5 72 C171.79244368 79.05352981 187.07944312 86.11874927 202.35400391 93.2109375 C209.43479559 96.49811941 216.51548794 99.78480248 223.6162262 103.0287323 C226.26211901 104.23766251 228.90598356 105.45099025 231.54971313 106.66464233 C233.32027743 107.47495576 235.09405267 108.27824171 236.86791992 109.08129883 C237.90924072 109.55978271 238.95056152 110.0382666 240.0234375 110.53125 C240.91981934 110.93923828 241.81620117 111.34722656 242.73974609 111.76757812 C246.42297705 113.77588984 246.42297705 113.77588984 248 116 C248.13834994 118.67809423 248.09246333 121.08010613 247.88983154 123.73709106 C247.84158544 124.53556241 247.79333935 125.33403376 247.74363124 126.15670121 C247.57694529 128.85061343 247.38748542 131.54244841 247.19824219 134.23486328 C247.07382247 136.1701026 246.9508086 138.10543275 246.82909203 140.04084396 C246.49119187 145.35002134 246.13357275 150.6577159 245.77282572 155.96538305 C245.39194575 161.620711 245.02945463 167.27721778 244.66500854 172.93362427 C244.03836731 182.62215337 243.40063319 192.3098985 242.75518799 201.99719238 C241.75005169 217.08533703 240.76640542 232.17483916 239.78662109 247.26464844 C239.45920865 252.30347543 239.13163672 257.34229204 238.8039856 262.38110352 C238.72296124 263.62732876 238.64193689 264.87355401 238.55845726 266.15754366 C237.98390824 274.98988204 237.40623054 283.8220125 236.82711792 292.65405273 C234.8558482 322.7274383 232.9200589 352.80266504 231.0546875 382.8828125 C231.0005261 383.75616761 230.94636471 384.62952271 230.89056206 385.52934313 C230.27614965 395.44133823 229.66466417 405.35351241 229.05491066 415.26579511 C228.58082029 422.97172503 228.10448624 430.67751573 227.62793612 438.38329387 C226.74947075 452.58870958 225.87344184 466.79427446 225 481 C224.01 481 223.02 481 222 481 C221.63463135 480.18885742 221.2692627 479.37771484 220.89282227 478.54199219 C211.76139488 458.29644248 202.41447369 438.16294487 192.88769531 418.1005249 C190.35795121 412.76836113 187.85743658 407.42293732 185.36705017 402.07229614 C183.85570308 398.82683725 182.33314162 395.58751816 180.78515625 392.359375 C179.93244141 390.57273437 179.93244141 390.57273437 179.0625 388.75 C178.76021484 388.12738281 178.45792969 387.50476563 178.14648438 386.86328125 C176.80579537 384.03597791 176 382.17332416 176 379 C175.34 378.67 174.68 378.34 174 378 C172.97851562 376.11401367 172.97851562 376.11401367 171.90625 373.66796875 C171.32037109 372.34635742 171.32037109 372.34635742 170.72265625 370.99804688 C170.31917969 370.07056641 169.91570312 369.14308594 169.5 368.1875 C168.69854127 366.36821429 167.89647948 364.54919412 167.09375 362.73046875 C166.73990234 361.91989014 166.38605469 361.10931152 166.02148438 360.27416992 C165.35466358 358.78960117 164.63844549 357.32598809 163.86914062 355.8918457 C163 354 163 354 163 351 C162.34 350.67 161.68 350.34 161 350 C159.67406958 347.28927776 158.44609397 344.58058018 157.25 341.8125 C156.43170587 339.95744169 155.61126076 338.10333123 154.7890625 336.25 C154.11665527 334.7340625 154.11665527 334.7340625 153.43066406 333.1875 C150.89265322 327.53284649 148.25582508 321.92439828 145.625 316.3125 C144.41735791 313.73335853 143.21046238 311.15386841 142.00390625 308.57421875 C141.68800034 307.89888596 141.37209442 307.22355316 141.0466156 306.52775574 C136.86044757 297.57168227 132.71441102 288.59698861 128.5625 279.625 C123.0311077 267.67293824 117.4793578 255.73107641 111.87719727 243.81201172 C107.23473236 233.93365694 102.60616871 224.04930737 98.0625 214.125 C97.64282959 213.21468018 97.22315918 212.30436035 96.79077148 211.36645508 C96.41766846 210.54685303 96.04456543 209.72725098 95.66015625 208.8828125 C95.33668213 208.17527832 95.01320801 207.46774414 94.67993164 206.73876953 C94 205 94 205 94 203 C93.34 202.67 92.68 202.34 92 202 C91.1418306 200.17566028 90.36241071 198.31390496 89.625 196.4375 C87.95477312 192.2080545 86.1048512 188.16609764 84.04833984 184.11743164 C81.8723916 179.72246212 79.96281093 175.2039344 78 170.7109375 C76.07548885 166.33568169 74.05297658 162.03618275 71.89257812 157.77246094 C70.78888189 155.58076656 69.75396924 153.36401077 68.75 151.125 C68.41484375 150.38507813 68.0796875 149.64515625 67.734375 148.8828125 C67 147 67 147 67 145 C66.34 144.67 65.68 144.34 65 144 C63.94677734 141.99047852 63.94677734 141.99047852 62.8359375 139.37890625 C62.43632812 138.44369141 62.03671875 137.50847656 61.625 136.54492188 C61.00625 135.06862305 61.00625 135.06862305 60.375 133.5625 C59.95476562 132.58216797 59.53453125 131.60183594 59.1015625 130.59179688 C56 123.27593598 56 123.27593598 56 121 C55.01 120.505 55.01 120.505 54 120 C53.08618164 118.37695313 53.08618164 118.37695313 52.16015625 116.28125 C51.6487207 115.12882812 51.6487207 115.12882812 51.12695312 113.953125 C50.77568359 113.14359375 50.42441406 112.3340625 50.0625 111.5 C49.71509766 110.72140625 49.36769531 109.9428125 49.00976562 109.140625 C46.9303097 104.40996068 45.17663058 99.68851314 43.70874023 94.73242188 C43.13791808 92.79458556 43.13791808 92.79458556 41 92 C40.08618164 90.3293457 40.08618164 90.3293457 39.16015625 88.17578125 C38.6487207 87.00305664 38.6487207 87.00305664 38.12695312 85.80664062 C37.77568359 84.98357422 37.42441406 84.16050781 37.0625 83.3125 C36.36718729 81.70386374 35.67059685 80.09577909 34.97265625 78.48828125 C34.63548584 77.71145996 34.29831543 76.93463867 33.95092773 76.13427734 C32.72247521 73.37711894 31.35693017 70.69591154 30 68 C28.74603853 65.26105459 27.53314306 62.5039249 26.3125 59.75 C21.26422355 48.43735102 15.96779046 37.24264929 10.6730957 26.04394531 C9.06575106 22.64408511 7.46297216 19.24211522 5.86450195 15.83807373 C5.04777361 14.10157458 4.2261849 12.3673638 3.40429688 10.63330078 C2.94603516 9.65216309 2.48777344 8.67102539 2.015625 7.66015625 C1.62149414 6.82234619 1.22736328 5.98453613 0.82128906 5.12133789 C0 3 0 3 0 0 Z " fill="#AF23F2" transform="translate(410,5)"/>
<path d="M0 0 C2.00828569 -0.02112328 4.01697359 -0.01410731 6.02517414 0.01396656 C7.13029655 0.00969444 8.23541896 0.00542231 9.37402993 0.00102073 C13.09639183 -0.00724918 16.8176399 0.02034358 20.53989887 0.04761219 C23.20043201 0.0490218 25.86089582 0.04845287 28.52142048 0.04539967 C34.25915067 0.04277547 39.996597 0.05848791 45.73425579 0.08658886 C54.02993837 0.12719166 62.32548342 0.14024274 70.6212546 0.14652882 C84.07989096 0.1574771 97.53837597 0.19076566 110.99693012 0.23804188 C124.07211772 0.28392373 137.14726423 0.31932233 150.22251606 0.34058094 C151.0282167 0.34189456 151.83391733 0.34320818 152.66403314 0.3445616 C156.70592021 0.3510867 160.74780758 0.35740526 164.78969514 0.36362112 C198.33129536 0.41547072 231.87271237 0.50355041 265.41416645 0.61523914 C265.63290833 1.14559175 265.85165022 1.67594435 266.07702065 2.22236824 C268.40210119 7.85929086 270.7281179 13.49582658 273.0546236 19.13216114 C273.91701484 21.221768 274.77918541 23.31146594 275.64111042 25.40126514 C283.1214441 43.53716765 290.69585636 61.63201076 298.338727 79.69995594 C299.41416645 82.61523914 299.41416645 82.61523914 299.41416645 85.61523914 C298.44479145 85.90398914 297.47541645 86.19273914 296.47666645 86.49023914 C293.30752442 87.25738596 293.30752442 87.25738596 292.41416645 89.61523914 C290.41416645 90.28190581 288.41416645 90.94857248 286.41416645 91.61523914 C286.08416645 92.27523914 285.75416645 92.93523914 285.41416645 93.61523914 C283.42488476 94.75547457 281.39474586 95.82446779 279.35166645 96.86523914 C272.49400818 100.42594632 265.8205807 104.25521904 259.16416645 108.17773914 C250.48195444 113.2846795 241.73438861 118.25065338 232.91416645 123.11523914 C223.32000102 128.40932615 213.81972089 133.83794158 204.37388325 139.39185047 C195.82146102 144.40878603 187.18542499 149.26570707 178.52110004 154.08618641 C177.53319477 154.635891 176.5452895 155.18559559 175.5274477 155.75195789 C174.65902241 156.23366444 173.79059711 156.71537098 172.8958559 157.21167469 C171.147857 158.20028715 169.42399851 159.23219891 167.71958637 160.29419422 C165.41416645 161.61523914 165.41416645 161.61523914 163.41416645 161.61523914 C163.08416645 162.27523914 162.75416645 162.93523914 162.41416645 163.61523914 C160.22393021 164.86637409 158.03593752 166.03662403 155.78916645 167.17773914 C151.52731642 169.37236239 147.34381887 171.60977748 143.2930727 174.17773914 C142.63194477 174.5946703 141.97081684 175.01160145 141.28965473 175.44116688 C140.02253022 176.24968107 138.76387157 177.07166018 137.51524067 177.90845203 C134.67015152 179.71276072 132.93609333 180.65758023 129.53110981 180.38135242 C126.35980519 179.60187769 124.03282795 178.56067531 121.20322895 176.94727039 C120.2183852 176.39103992 119.23354145 175.83480946 118.21885395 175.26172352 C117.16955708 174.65650867 116.1202602 174.05129383 115.03916645 173.42773914 C113.93572895 172.80061024 112.83229145 172.17348133 111.69541645 171.52734852 C103.23844348 166.70648864 94.83323562 161.79599714 86.43809223 156.86841297 C78.2756877 152.08670087 70.03128331 147.46262228 61.76524067 142.86304188 C54.63788378 138.8870828 47.57477553 134.81359917 40.53916645 130.67773914 C30.94677284 125.04110206 21.25294257 119.60940709 11.50962543 114.23853016 C3.80378289 109.97835797 -3.81388093 105.58747567 -11.39833355 101.11523914 C-19.64142055 96.2574173 -27.91837617 91.67429489 -36.58583355 87.61523914 C-36.58583355 86.95523914 -36.58583355 86.29523914 -36.58583355 85.61523914 C-37.57583355 85.28523914 -38.56583355 84.95523914 -39.58583355 84.61523914 C-32.77964738 67.34982904 -25.71257715 50.19871007 -18.56459332 33.07251453 C-17.85652339 31.37334199 -17.14875316 29.67404453 -16.4413023 27.97461414 C-16.10169979 27.15939793 -15.76209728 26.34418171 -15.41220379 25.50426197 C-13.04593241 19.79664915 -10.80976902 14.05529328 -8.6847105 8.25293446 C-8.32208111 7.382495 -7.95945171 6.51205555 -7.58583355 5.61523914 C-7.28702125 4.74823792 -6.98820894 3.88123671 -6.68034172 2.98796272 C-4.19420653 0.17159195 -3.61434852 0.22559776 0 0 Z " fill="#EA065E" transform="translate(203.5858335494995,509.3847608566284)"/>
<path d="M0 0 C0.66 0 1.32 0 2 0 C2.54805298 1.35919556 2.54805298 1.35919556 3.10717773 2.74584961 C10.46751968 20.99025203 17.88679299 39.20847974 25.4375 57.375 C30.94806339 70.63312686 36.433808 83.90074209 41.875 97.1875 C47.28443698 110.39571431 52.71911495 123.59321889 58.17388916 136.78277588 C64.73552601 152.65120718 71.2892926 168.52293507 77.80792236 184.40908813 C78.59362737 186.32274306 79.38034668 188.2359819 80.16815186 190.14877319 C81.26080872 192.80243984 82.34963034 195.45764916 83.4375 198.11328125 C83.75538483 198.88314362 84.07326965 199.65300598 84.40078735 200.44619751 C86.50214936 205.5919101 88.23360553 210.70081659 90 216 C31.26 216 -27.48 216 -88 216 C-87.19016231 211.14097386 -86.08987851 207.34169064 -84.18359375 202.91015625 C-83.89599686 202.22667618 -83.60839996 201.54319611 -83.31208801 200.83900452 C-82.68784894 199.35725464 -82.06072372 197.87671803 -81.43103027 196.39727783 C-80.06258068 193.18144651 -78.70866402 189.95956131 -77.35397339 186.73791504 C-76.64104255 185.04256399 -75.92742928 183.34749977 -75.21316528 181.65270996 C-71.49948437 172.83432703 -67.87122661 163.98165159 -64.25 155.125 C-62.90954468 151.84997738 -61.568271 148.57529065 -60.2265625 145.30078125 C-59.71602577 144.05474625 -59.71602577 144.05474625 -59.19517517 142.78353882 C-55.42411781 133.58586747 -51.62421337 124.40014605 -47.82492065 115.21411133 C-41.31653421 99.47573081 -34.81855607 83.73305413 -28.35687256 67.97543335 C-27.59147264 66.10971361 -26.82526867 64.24432348 -26.0581665 62.37930298 C-22.23074956 53.07147398 -18.48860877 43.75054893 -15.00134277 34.30960083 C-13.45890956 30.15536842 -11.79215387 26.09606621 -9.94287109 22.0703125 C-8.87813858 19.73242236 -7.88295472 17.37112866 -6.89453125 15 C-6.55099609 14.17628906 -6.20746094 13.35257813 -5.85351562 12.50390625 C-5.14670038 10.80383656 -4.44100959 9.10329901 -3.73632812 7.40234375 C-3.39666016 6.58894531 -3.05699219 5.77554688 -2.70703125 4.9375 C-2.25034058 3.83728516 -2.25034058 3.83728516 -1.78442383 2.71484375 C-1 1 -1 1 0 0 Z " fill="#DC1BA5" transform="translate(333,188)"/>
<path d="M0 0 C0.33 0 0.66 0 1 0 C1.48184291 22.06784944 0.14999436 43.93269192 -1.31781006 65.93890381 C-1.62582886 70.58580859 -1.92375124 75.23336106 -2.22265625 79.88085938 C-2.80551634 88.92121427 -3.39910486 97.96082714 -4 107 C-4.99 107 -5.98 107 -7 107 C-9.02706754 102.66514135 -11.03869984 98.32357907 -13.03637695 93.97509766 C-13.71805232 92.49691795 -14.40390061 91.02065517 -15.09399414 89.54638672 C-16.08543467 87.42645989 -17.06164563 85.30008388 -18.03515625 83.171875 C-18.50224754 82.18571198 -18.50224754 82.18571198 -18.97877502 81.17962646 C-21.07858266 76.53356777 -21.07858266 76.53356777 -20.66186523 73.70410156 C-20.44344971 73.14174805 -20.22503418 72.57939453 -20 72 C-20.34444881 69.52733235 -20.34444881 69.52733235 -21 67 C-22.44926766 61.05800259 -20.84861751 57.46097324 -18.5234375 52 C-17.9011605 49.62234459 -18.37171916 48.33833847 -19 46 C-18.649375 45.030625 -18.29875 44.06125 -17.9375 43.0625 C-16.84154775 39.48238932 -17.28613055 38.23730896 -19 35 C-17.35 33.68 -15.7 32.36 -14 31 C-14.66 30.01 -15.32 29.02 -16 28 C-15.01 27.34 -14.02 26.68 -13 26 C-12.40929986 24.05396726 -12.40929986 24.05396726 -12 22 C-11.34 21.01 -10.68 20.02 -10 19 C-10.33 18.01 -10.66 17.02 -11 16 C-10.0390625 13.84375 -10.0390625 13.84375 -8.625 11.5 C-7.10234591 8.94806576 -5.94478033 6.83434098 -5 4 C-4.34 4 -3.68 4 -3 4 C-1.9739266 2.68662604 -0.97272675 1.35335895 0 0 Z M-20 64 C-19 66 -19 66 -19 66 Z " fill="#9019F3" transform="translate(639,379)"/>
<path d="M0 0 C0.4125 0.515625 0.825 1.03125 1.25 1.5625 C2.11625 2.2740625 2.11625 2.2740625 3 3 C5.05396726 2.59070014 5.05396726 2.59070014 7 2 C7.66 2.66 8.32 3.32 9 4 C8.68275269 8.82189586 6.91784263 12.79428836 4.82421875 17.07421875 C4.50258255 17.74811142 4.18094635 18.42200409 3.8495636 19.11631775 C3.15944228 20.56100395 2.46608255 22.00414687 1.76977539 23.44586182 C-0.06147829 27.23880418 -1.86823255 31.04337402 -3.67578125 34.84765625 C-4.04051544 35.61410461 -4.40524963 36.38055298 -4.78103638 37.17022705 C-10.08264355 48.34363679 -15.04636698 59.66884982 -20 71 C-20.66 71 -21.32 71 -22 71 C-24.33083382 48.03810743 -26.40624422 25.11078211 -26 2 C-25.22269531 2.18433594 -24.44539063 2.36867188 -23.64453125 2.55859375 C-20.61401546 3.06442578 -19.54700993 2.60367292 -17 1 C-16.34 1.99 -15.68 2.98 -15 4 C-14.401875 3.505 -13.80375 3.01 -13.1875 2.5 C-11 1 -11 1 -8 1 C-7.01 1.33 -6.02 1.66 -5 2 C-2.3430809 1.12085312 -2.3430809 1.12085312 0 0 Z " fill="#F02072" transform="translate(55,416)"/>
<path d="M0 0 C0.66 0 1.32 0 2 0 C2.40726318 1.00562988 2.81452637 2.01125977 3.23413086 3.04736328 C4.78857426 6.88536381 6.34355854 10.72314504 7.89865112 14.56088257 C8.58917958 16.26526526 9.27954918 17.96971232 9.96975708 19.67422485 C14.95687946 31.99112333 14.95687946 31.99112333 20 44.28515625 C20.42031494 45.30399902 20.84062988 46.3228418 21.27368164 47.37255859 C22.03285374 49.20877724 22.79492642 51.04380014 23.56030273 52.87744141 C26 58.78068541 26 58.78068541 26 61 C25.34 61 24.68 61 24 61 C23.505 61.99 23.505 61.99 23 63 C20.33333333 62.33333333 17.66666667 61.66666667 15 61 C15 60.01 15 59.02 15 58 C14.01 58 13.02 58 12 58 C10.24609375 56.3203125 10.24609375 56.3203125 8.4375 54.125 C7.83808594 53.40570313 7.23867188 52.68640625 6.62109375 51.9453125 C5.81865234 50.98238281 5.81865234 50.98238281 5 50 C4.34 49.34 3.68 48.68 3 48 C2.54625 47.505 2.0925 47.01 1.625 46.5 C-0.13077164 44.87928772 -1.82917901 43.97312665 -4 43 C-4.33 43.474375 -4.66 43.94875 -5 44.4375 C-7.63424798 46.49550623 -9.79225759 46.52892958 -13.0625 46.7890625 C-15.21579442 46.95432436 -15.21579442 46.95432436 -18 48 C-18.66 48.99 -19.32 49.98 -20 51 C-19.37043343 46.1227554 -17.95094737 41.75145932 -16.1875 37.1875 C-15.93935547 36.52685547 -15.69121094 35.86621094 -15.43554688 35.18554688 C-13.78098674 30.83653768 -11.95095191 26.58759522 -10.04174805 22.3449707 C-7.84687472 17.40431959 -5.8054114 12.39668269 -3.73632812 7.40234375 C-3.39666016 6.58894531 -3.05699219 5.77554688 -2.70703125 4.9375 C-2.4025708 4.20402344 -2.09811035 3.47054687 -1.78442383 2.71484375 C-1 1 -1 1 0 0 Z " fill="#DA25C7" transform="translate(333,188)"/>
<path d="M0 0 C1.65 0.33 3.3 0.66 5 1 C5.12375 2.051875 5.2475 3.10375 5.375 4.1875 C5.91369626 7.47354716 6.70222862 9.97186679 8 13 C8 13.66 8 14.32 8 15 C8.66 15.66 9.32 16.32 10 17 C9.79375 17.5775 9.5875 18.155 9.375 18.75 C8.68867101 21.26997708 8.68867101 21.26997708 11 23.9375 C13 27 13 27 12.5625 29.5625 C12.376875 30.366875 12.19125 31.17125 12 32 C12.99335201 33.67063747 13.99431758 35.33675599 15 37 C15.68603206 39.74953008 15.86119053 42.13127093 16 45 C15.34 45.99 14.68 46.98 14 48 C13.31822584 49.32567199 12.64808564 50.65753688 12 52 C11.67 52 11.34 52 11 52 C10.80664062 51.20335937 10.61328125 50.40671875 10.4140625 49.5859375 C9.11869569 44.31469238 7.79462878 39.1275108 6 34 C5.2661825 31.43163876 5 29.71359931 5 27 C4.01 27.99 3.02 28.98 2 30 C1.34 29.67 0.68 29.34 0 29 C0.33 27.35 0.66 25.7 1 24 C0.01 24 -0.98 24 -2 24 C-2.33 21.36 -2.66 18.72 -3 16 C-1.68 15.34 -0.36 14.68 1 14 C0.16666667 11.83333333 0.16666667 11.83333333 -2 11 C-2.82804069 8.51587793 -3 6.64779693 -3 4 C-1.5 1.8125 -1.5 1.8125 0 0 Z M1 2 C1.66 2.66 2.32 3.32 3 4 C3 3.34 3 2.68 3 2 C2.34 2 1.68 2 1 2 Z " fill="#9F1CED" transform="translate(579,296)"/>
<path d="M0 0 C-1.65 0.66 -3.3 1.32 -5 2 C-4.34 2.66 -3.68 3.32 -3 4 C-1.68 4 -0.36 4 1 4 C3 5.8125 3 5.8125 5 8 C7.68741829 10.27367462 7.68741829 10.27367462 10.9375 11.4375 C13 12 13 12 15.5625 14.0625 C17.87245668 16.31112206 17.87245668 16.31112206 21 16 C21.66 16.33 22.32 16.66 23 17 C23 17.66 23 18.32 23 19 C24.2065625 19.433125 24.2065625 19.433125 25.4375 19.875 C28 21 28 21 29 23 C28.38125 23.12375 27.7625 23.2475 27.125 23.375 C24.80879168 23.87197356 24.80879168 23.87197356 23 26 C19 26 19 26 16.9375 24 C16.298125 23.34 15.65875 22.68 15 22 C14.01 22 13.02 22 12 22 C11.01 22 10.02 22 9 22 C9.33 21.01 9.66 20.02 10 19 C9.29875 18.896875 8.5975 18.79375 7.875 18.6875 C4.60862353 17.90640997 1.9528148 16.57941257 -1 15 C-1 14.01 -1 13.02 -1 12 C-2.65 12.33 -4.3 12.66 -6 13 C-6.66 11.68 -7.32 10.36 -8 9 C-8.5775 9.2475 -9.155 9.495 -9.75 9.75 C-10.86375 9.87375 -10.86375 9.87375 -12 10 C-14.25 8.0625 -14.25 8.0625 -16 6 C-11.78590175 2.33556674 -5.52473958 -1.84157986 0 0 Z " fill="#F731C5" transform="translate(63,97)"/>
<path d="M0 0 C1.72526042 1.04166667 3.45052083 2.08333333 5.17578125 3.125 C7.11361926 4.21623999 7.11361926 4.21623999 10 4 C11.70250393 5.28725907 13.37064759 6.62131719 15 8 C18.46157446 9.73078723 20.34078813 10.13561748 24 9 C23.67 9.66 23.34 10.32 23 11 C40.36474725 11.84526286 57.67904071 12.12891126 75.0625 12.0625 C77.40559798 12.05746387 79.74869703 12.05290478 82.09179688 12.04882812 C87.7278888 12.03801527 93.36393902 12.02145208 99 12 C99 12.66 99 13.32 99 14 C54.45 14 9.9 14 -36 14 C-35.67 13.34 -35.34 12.68 -35 12 C-21.8 12 -8.6 12 5 12 C4.34 11.67 3.68 11.34 3 11 C2.375 8.9375 2.375 8.9375 2 7 C1.01 7 0.02 7 -1 7 C-1.04254356 5.00045254 -1.04080783 2.99958364 -1 1 C-0.67 0.67 -0.34 0.34 0 0 Z " fill="#DE1BA0" transform="translate(281,390)"/>
<path d="M0 0 C0.5775 0.66 1.155 1.32 1.75 2 C3.99653977 4.44290923 3.99653977 4.44290923 8 4 C4.10301508 16.75376884 4.10301508 16.75376884 1 21 C-1.6875 21.875 -1.6875 21.875 -4 22 C-4.33 22.66 -4.66 23.32 -5 24 C-6.32 23.67 -7.64 23.34 -9 23 C-8.34 21.35 -7.68 19.7 -7 18 C-9.32357511 17.81509993 -9.32357511 17.81509993 -12 20 C-12 18.33333333 -12 16.66666667 -12 15 C-12.66 14.34 -13.32 13.68 -14 13 C-13.75 11.1875 -13.75 11.1875 -13 9 C-12.7525 8.13375 -12.505 7.2675 -12.25 6.375 C-11 4 -11 4 -8.375 2.6875 C-7.59125 2.460625 -6.8075 2.23375 -6 2 C-5.34 2.66 -4.68 3.32 -4 4 C-2.68 2.68 -1.36 1.36 0 0 Z " fill="#ED32DF" transform="translate(231,41)"/>
<path d="M0 0 C0.99 0.66 1.98 1.32 3 2 C2.01 2.495 2.01 2.495 1 3 C1.33 3.66 1.66 4.32 2 5 C2.99 5.33 3.98 5.66 5 6 C5.61875 5.67 6.2375 5.34 6.875 5 C9.64410679 3.69689092 11.06915879 4.34056073 14 5 C16.09821215 4.60061233 16.09821215 4.60061233 18 4 C21 4 21 4 24 6 C23.0409375 6.433125 23.0409375 6.433125 22.0625 6.875 C19.84793921 7.82823451 19.84793921 7.82823451 19 10 C18.443125 9.773125 17.88625 9.54625 17.3125 9.3125 C14.09447789 8.87763215 12.67610793 10.30982657 10 12 C9.34 11.67 8.68 11.34 8 11 C7.67 11.66 7.34 12.32 7 13 C1.33333333 13 -4.33333333 13 -10 13 C-11.68698082 13.61344757 -13.35965807 14.27095914 -15 15 C-16.65 13.68 -18.3 12.36 -20 11 C-19.34 11 -18.68 11 -18 11 C-17.67 9.68 -17.34 8.36 -17 7 C-16.34 7 -15.68 7 -15 7 C-14.67 6.34 -14.34 5.68 -14 5 C-11.61370553 4.38812962 -9.46459429 4 -7 4 C-5.76901371 3.37615174 -4.56223782 2.70354833 -3.375 2 C-2.26125 1.34 -1.1475 0.68 0 0 Z " fill="#F30F51" transform="translate(201,543)"/>
<path d="M0 0 C2 1.3125 2 1.3125 4 3 C4 3.99 4 4.98 4 6 C5.8182691 8.78088215 7.15118884 9.03573554 10.4375 9.8125 C14.2125246 10.30507563 14.2125246 10.30507563 18 8 C15.69 13.28 13.38 18.56 11 24 C9.68 24 8.36 24 7 24 C7 24.66 7 25.32 7 26 C5.35 26.66 3.7 27.32 2 28 C0.70250512 23.05330076 0 19.12088011 0 14 C-0.98768341 11.28387064 -1.60474173 10.23250486 -4.125 8.75 C-4.74375 8.5025 -5.3625 8.255 -6 8 C-5.979375 7.21625 -5.95875 6.4325 -5.9375 5.625 C-5.81315937 3.01885039 -5.81315937 3.01885039 -7 1 C-6.401875 1.20625 -5.80375 1.4125 -5.1875 1.625 C-2.71549154 2.30671915 -2.71549154 2.30671915 0 0 Z " fill="#EE31D8" transform="translate(203,77)"/>
<path d="M0 0 C0 1.32 0 2.64 0 4 C2.64738916 5.4606285 3.89448334 6 7 6 C8.35085807 6.63040043 9.68252676 7.30251417 11 8 C12.66140763 8.67966676 14.32700041 9.34938905 16 10 C15.45276317 13.37462715 14.9451 15.08235 13 18 C10.375 18.6875 10.375 18.6875 8 19 C7.71125 18.360625 7.4225 17.72125 7.125 17.0625 C6.17176549 14.84793921 6.17176549 14.84793921 4 14 C3.67 14.66 3.34 15.32 3 16 C0.98177083 15.67447917 -1.03645833 15.34895833 -3.0546875 15.0234375 C-3.69664063 15.01570313 -4.33859375 15.00796875 -5 15 C-5.66 15.66 -6.32 16.32 -7 17 C-7.5534764 14.92446352 -8 13.15634036 -8 11 C-8.66 10.34 -9.32 9.68 -10 9 C-10 8.01 -10 7.02 -10 6 C-10.66 5.67 -11.32 5.34 -12 5 C-12.33 5.66 -12.66 6.32 -13 7 C-13.33 6.01 -13.66 5.02 -14 4 C-12.42466914 3.13116294 -10.83935491 2.28040932 -9.25 1.4375 C-8.36828125 0.96183594 -7.4865625 0.48617187 -6.578125 -0.00390625 C-3.79298812 -1.07998186 -2.73019786 -1.06528748 0 0 Z M-5 2 C-5 2.66 -5 3.32 -5 4 C-4.34 3.67 -3.68 3.34 -3 3 C-3.66 2.67 -4.32 2.34 -5 2 Z " fill="#F532CE" transform="translate(100,80)"/>
<path d="M0 0 C0.2475 0.556875 0.495 1.11375 0.75 1.6875 C2.21606015 4.39971127 4.02989471 6.63587365 6 9 C5.67 9.66 5.34 10.32 5 11 C5.99 11.66 6.98 12.32 8 13 C7.1875 15.9375 7.1875 15.9375 6 19 C5.01 19.33 4.02 19.66 3 20 C3 21.65 3 23.3 3 25 C2.34 25 1.68 25 1 25 C1 25.66 1 26.32 1 27 C0.01 27 -0.98 27 -2 27 C-2.12375 26.360625 -2.2475 25.72125 -2.375 25.0625 C-2.58125 24.381875 -2.7875 23.70125 -3 23 C-3.66 22.67 -4.32 22.34 -5 22 C-6.12044249 19.48916386 -7.14747932 17.00290713 -8.125 14.4375 C-8.40214844 13.72658203 -8.67929687 13.01566406 -8.96484375 12.28320312 C-9.64942596 10.52453504 -10.32551635 8.76256576 -11 7 C-6.375 4 -6.375 4 -3 4 C-1.29467677 2.05990478 -1.29467677 2.05990478 0 0 Z " fill="#C227EB" transform="translate(480,127)"/>
<path d="M0 0 C2.475 2.475 2.475 2.475 5 5 C4.34 5 3.68 5 3 5 C2.67 6.32 2.34 7.64 2 9 C1.21625 8.979375 0.4325 8.95875 -0.375 8.9375 C-2.98114961 8.81315937 -2.98114961 8.81315937 -5 10 C-6.32 10 -7.64 10 -9 10 C-12.17466443 11.24240686 -12.17466443 11.24240686 -14 14 C-17.49234244 14.09978121 -20.59437148 13.77842938 -24 13 C-24.33 13.66 -24.66 14.32 -25 15 C-25.66 15 -26.32 15 -27 15 C-27.4125 14.505 -27.825 14.01 -28.25 13.5 C-30.78617242 11.32613792 -32.75327769 11.79707986 -36 12 C-36.99 12 -37.98 12 -39 12 C-38.34 10.35 -37.68 8.7 -37 7 C-36.2575 7.37125 -35.515 7.7425 -34.75 8.125 C-32.09543373 9.28831113 -32.09543373 9.28831113 -29.9375 8.1875 C-29.298125 7.795625 -28.65875 7.40375 -28 7 C-27.278125 6.835 -26.55625 6.67 -25.8125 6.5 C-25.214375 6.335 -24.61625 6.17 -24 6 C-23.67 5.34 -23.34 4.68 -23 4 C-19.90837736 5.38589981 -18.50816459 6.49183541 -16 9 C-13.69 7.35 -11.38 5.7 -9 4 C-8.01 4.66 -7.02 5.32 -6 6 C-4.02 4.02 -2.04 2.04 0 0 Z M-19 9 C-18 11 -18 11 -18 11 Z " fill="#F40B4E" transform="translate(261,556)"/>
<path d="M0 0 C0.66 0.33 1.32 0.66 2 1 C0.515 2.485 0.515 2.485 -1 4 C-0.01 4.99 0.98 5.98 2 7 C1.34 7.66 0.68 8.32 0 9 C0.66 10.32 1.32 11.64 2 13 C2.99 13 3.98 13 5 13 C7.6875 15 7.6875 15 10 17 C8.8125 18.5625 8.8125 18.5625 7 20 C4.4375 19.6875 4.4375 19.6875 2 19 C-0.46278801 19 -1.85224119 19.85452863 -4 21 C-10.92307692 15.46153846 -10.92307692 15.46153846 -13 12 C-13 10 -13 8 -13 6 C-10.87959258 4.96966118 -8.75352092 3.95097146 -6.625 2.9375 C-5.44164062 2.36902344 -4.25828125 1.80054688 -3.0390625 1.21484375 C-2.03617188 0.81394531 -1.03328125 0.41304687 0 0 Z M-4 17 C-4 17.66 -4 18.32 -4 19 C-3.34 18.67 -2.68 18.34 -2 18 C-2.66 17.67 -3.32 17.34 -4 17 Z " fill="#F033DC" transform="translate(189,36)"/>
<path d="M0 0 C2.81437108 0.52050734 5.31198828 1.51240691 7.9375 2.625 C11.32175162 3.93442072 13.47047263 4.21327503 17 3 C17.33 3.66 17.66 4.32 18 5 C18.99 5 19.98 5 21 5 C24.625 5.8125 24.625 5.8125 28 7 C29 10 29 10 27.5625 13.1875 C26.7890625 14.5796875 26.7890625 14.5796875 26 16 C24.68 15.34 23.36 14.68 22 14 C22 13.34 22 12.68 22 12 C20.02 12.99 20.02 12.99 18 14 C17.29875 13.360625 16.5975 12.72125 15.875 12.0625 C12.70802492 9.79053961 10.86622548 9.16452023 7 9 C4.68019054 9.82342532 4.68019054 9.82342532 3 11 C2.01 9.35 1.02 7.7 0 6 C-1.65 6.33 -3.3 6.66 -5 7 C-6.24546405 4.50907189 -5.7767578 3.58919267 -5 1 C-3.68 1 -2.36 1 -1 1 C-0.67 0.67 -0.34 0.34 0 0 Z M2 2 C2.66 2.66 3.32 3.32 4 4 C4 3.34 4 2.68 4 2 C3.34 2 2.68 2 2 2 Z M19 6 C19.66 6.66 20.32 7.32 21 8 C21 7.34 21 6.68 21 6 C20.34 6 19.68 6 19 6 Z " fill="#F228A1" transform="translate(105,263)"/>
<path d="M0 0 C0.99 0.33 1.98 0.66 3 1 C2.01 1.495 2.01 1.495 1 2 C4.10540926 3.21081851 4.10540926 3.21081851 8 3 C9.75 4.3125 9.75 4.3125 11 6 C11 6.99 11 7.98 11 9 C10.01 9.495 10.01 9.495 9 10 C9 10.99 9 11.98 9 13 C7.35 13 5.7 13 4 13 C3.67 14.32 3.34 15.64 3 17 C2.34 17 1.68 17 1 17 C0.67 17.99 0.34 18.98 0 20 C-0.5775 19.05125 -1.155 18.1025 -1.75 17.125 C-3.95255532 14.06589539 -4.79109686 13.49748813 -8 12 C-9.25 9.875 -9.25 9.875 -10 8 C-9.443125 7.7525 -8.88625 7.505 -8.3125 7.25 C-4.95956419 5.43760226 -1.73442754 3.46885508 0 0 Z M-1 4 C-0.67 4.66 -0.34 5.32 0 6 C0.33 5.34 0.66 4.68 1 4 C0.34 4 -0.32 4 -1 4 Z M-8 8 C-8 8.66 -8 9.32 -8 10 C-7.34 9.67 -6.68 9.34 -6 9 C-6.66 8.67 -7.32 8.34 -8 8 Z " fill="#C329F1" transform="translate(492,87)"/>
<path d="M0 0 C1.70840281 1.63412443 2.93453047 2.86906094 4 5 C6.12364481 5.22609337 6.12364481 5.22609337 7.625 3.5 C8.07875 3.005 8.5325 2.51 9 2 C11.4375 2.8125 11.4375 2.8125 14 4 C14.33 4.99 14.66 5.98 15 7 C18.51190809 8.22969878 18.51190809 8.22969878 22 9 C22 9.66 22 10.32 22 11 C20.68 11 19.36 11 18 11 C17.67 11.99 17.34 12.98 17 14 C12.72290301 14 11.44069624 13.29379749 8 11 C7.34 11.66 6.68 12.32 6 13 C5.01 12.34 4.02 11.68 3 11 C0.84725052 11.30840599 0.84725052 11.30840599 -1 12 C-1.66 11.01 -2.32 10.02 -3 9 C-3.99 9.495 -3.99 9.495 -5 10 C-5.66 9.67 -6.32 9.34 -7 9 C-7 10.65 -7 12.3 -7 14 C-7.33 14 -7.66 14 -8 14 C-8 11.36 -8 8.72 -8 6 C-7.01 6.33 -6.02 6.66 -5 7 C-4.9175 6.21625 -4.835 5.4325 -4.75 4.625 C-4 2 -4 2 -1.9375 0.6875 C-1.298125 0.460625 -0.65875 0.23375 0 0 Z M-1 3 C-0.67 3.66 -0.34 4.32 0 5 C0.33 4.34 0.66 3.68 1 3 C0.34 3 -0.32 3 -1 3 Z " fill="#F42899" transform="translate(28,273)"/>
<path d="M0 0 C1 3 1 3 0.37915039 4.80932617 C0.03875732 5.46392822 -0.30163574 6.11853027 -0.65234375 6.79296875 C-1.01650391 7.50517578 -1.38066406 8.21738281 -1.75585938 8.95117188 C-2.14580078 9.68916016 -2.53574219 10.42714844 -2.9375 11.1875 C-3.51661133 12.31188477 -3.51661133 12.31188477 -4.10742188 13.45898438 C-5.06271757 15.31060689 -6.03021577 17.15592452 -7 19 C-7.33 18.01 -7.66 17.02 -8 16 C-8.33 15.67 -8.66 15.34 -9 15 C-10 14 -11 13 -12 12 C-12.33 12.66 -12.66 13.32 -13 14 C-13.66 13.01 -14.32 12.02 -15 11 C-15.33 11.66 -15.66 12.32 -16 13 C-17.32 12.67 -18.64 12.34 -20 12 C-20 10.68 -20 9.36 -20 8 C-21.32 8.99 -22.64 9.98 -24 11 C-24.5534764 8.92446352 -25 7.15634036 -25 5 C-24.34 5 -23.68 5 -23 5 C-22.67 4.01 -22.34 3.02 -22 2 C-20.68 2 -19.36 2 -18 2 C-17.34 1.67 -16.68 1.34 -16 1 C-11.29508197 3.40983607 -11.29508197 3.40983607 -10 6 C-9.21625 5.835 -8.4325 5.67 -7.625 5.5 C-5 5 -5 5 -3 5 C-1.3553326 2.53673288 -1.3553326 2.53673288 0 0 Z M-16 5 C-15.34 5.66 -14.68 6.32 -14 7 C-14 6.34 -14 5.68 -14 5 C-14.66 5 -15.32 5 -16 5 Z M-7 8 C-6.67 8.66 -6.34 9.32 -6 10 C-5.67 9.34 -5.34 8.68 -5 8 C-5.66 8 -6.32 8 -7 8 Z " fill="#EF2FCD" transform="translate(203,120)"/>
<path d="M0 0 C0.391875 0.474375 0.78375 0.94875 1.1875 1.4375 C3.40908173 3.35265666 5.16036935 3.47691014 8 4 C8.33 4.66 8.66 5.32 9 6 C10.32 6 11.64 6 13 6 C12.01 6.495 12.01 6.495 11 7 C11 7.66 11 8.32 11 9 C11.99 9 12.98 9 14 9 C12.71480435 11.86697492 11.42870746 13.97607712 9 16 C8.34 16 7.68 16 7 16 C6.67 16.66 6.34 17.32 6 18 C5.01 16.02 4.02 14.04 3 12 C1.35 12.33 -0.3 12.66 -2 13 C-2 11.68 -2 10.36 -2 9 C-5.04913228 7.98888907 -5.04913228 7.98888907 -8 9 C-7.62234158 6.26197645 -7.25113012 5.21764611 -5.125 3.375 C-4.42375 2.92125 -3.7225 2.4675 -3 2 C-2.01 1.34 -1.02 0.68 0 0 Z M-1 3 C-0.34 3.66 0.32 4.32 1 5 C1 4.34 1 3.68 1 3 C0.34 3 -0.32 3 -1 3 Z " fill="#F12DC1" transform="translate(166,163)"/>
<path d="M0 0 C1 2 1 2 0.4375 3.9375 C0.293125 4.618125 0.14875 5.29875 0 6 C0.99 7.485 0.99 7.485 2 9 C1.34 9 0.68 9 0 9 C-1.09113575 13.14784438 -1.09113575 13.14784438 0.125 17.0625 C0.41375 17.701875 0.7025 18.34125 1 19 C-0.3125 21.625 -0.3125 21.625 -2 24 C-2.33 24.66 -2.66 25.32 -3 26 C-3.66 26 -4.32 26 -5 26 C-5.33 26.66 -5.66 27.32 -6 28 C-6.66 28 -7.32 28 -8 28 C-8 27.34 -8 26.68 -8 26 C-7.34 26 -6.68 26 -6 26 C-6 25.34 -6 24.68 -6 24 C-6.99 23.67 -7.98 23.34 -9 23 C-9.6875 20.8125 -9.6875 20.8125 -10 18 C-8.625 15.5 -8.625 15.5 -7 13 C-6.896875 12.236875 -6.79375 11.47375 -6.6875 10.6875 C-5.59677779 6.42376772 -2.73966356 3.37640494 0 0 Z M-7 22 C-6.34 22.66 -5.68 23.32 -5 24 C-5 23.34 -5 22.68 -5 22 C-5.66 22 -6.32 22 -7 22 Z " fill="#981CF1" transform="translate(611,328)"/>
<path d="M0 0 C2.58789062 1.5625 2.58789062 1.5625 5.17578125 3.125 C7.11361926 4.21623999 7.11361926 4.21623999 10 4 C11.70250393 5.28725907 13.37064759 6.62131719 15 8 C18.46157446 9.73078723 20.34078813 10.13561748 24 9 C23.67 9.66 23.34 10.32 23 11 C23.90492188 10.96519531 23.90492188 10.96519531 24.828125 10.9296875 C26.02695312 10.90261719 26.02695312 10.90261719 27.25 10.875 C28.03890625 10.85179687 28.8278125 10.82859375 29.640625 10.8046875 C32.22216563 11.01839119 33.73802582 11.793892 36 13 C31.6250563 13.05826088 27.25021302 13.09368457 22.875 13.125 C21.01875 13.15013672 21.01875 13.15013672 19.125 13.17578125 C17.92617188 13.18222656 16.72734375 13.18867188 15.4921875 13.1953125 C14.39245605 13.20578613 13.29272461 13.21625977 12.15966797 13.22705078 C8.77971349 12.98417042 6.11744773 12.31880969 3 11 C2.125 8.875 2.125 8.875 2 7 C1.01 7 0.02 7 -1 7 C-1.04254356 5.00045254 -1.04080783 2.99958364 -1 1 C-0.67 0.67 -0.34 0.34 0 0 Z " fill="#E61788" transform="translate(281,390)"/>
<path d="M0 0 C0.2475 0.61875 0.495 1.2375 0.75 1.875 C2.20628639 4.35068687 3.37812506 4.95125002 6 6 C6 6.66 6 7.32 6 8 C6.99 8 7.98 8 9 8 C8.67 8.66 8.34 9.32 8 10 C8.66 10 9.32 10 10 10 C10.33 9.34 10.66 8.68 11 8 C13 9 13 9 15 11 C15.99 11.33 16.98 11.66 18 12 C19.1875 14.0625 19.1875 14.0625 20 16 C19.01 16.99 18.02 17.98 17 19 C16.608125 18.484375 16.21625 17.96875 15.8125 17.4375 C15.214375 16.963125 14.61625 16.48875 14 16 C13.21625 16.20625 12.4325 16.4125 11.625 16.625 C10.75875 16.74875 9.8925 16.8725 9 17 C6.3125 14.625 6.3125 14.625 4 12 C3.34 11.67 2.68 11.34 2 11 C1.67 11.66 1.34 12.32 1 13 C0.34 12.01 -0.32 11.02 -1 10 C-1.99 10.495 -1.99 10.495 -3 11 C-2.53199289 6.94393835 -2.12046792 3.53411321 0 0 Z " fill="#E71A8E" transform="translate(262,360)"/>
<path d="M0 0 C22.11 0 44.22 0 67 0 C66.67 0.66 66.34 1.32 66 2 C47.52 2 29.04 2 10 2 C9.98352501 6.29558621 9.98352501 6.29558621 12.5 9.25 C13.325 10.1575 14.15 11.065 15 12 C12.92446352 12.5534764 11.15634036 13 9 13 C8.690625 12.21625 8.38125 11.4325 8.0625 10.625 C6.90085705 7.75505858 6.19866218 6.19866218 4 4 C4 3.01 4 2.02 4 1 C2.68 0.67 1.36 0.34 0 0 Z " fill="#D71191" transform="translate(402,510)"/>
<path d="M0 0 C2.475 0.99 2.475 0.99 5 2 C5 3.65 5 5.3 5 7 C5.969375 7.45375 6.93875 7.9075 7.9375 8.375 C11 10 11 10 12 12 C12.66 12.66 13.32 13.32 14 14 C13.67 14.33 13.34 14.66 13 15 C15.97 15.495 15.97 15.495 19 16 C19 19 19 19 17 21.1875 C16.01 22.0846875 16.01 22.0846875 15 23 C0 8 0 8 -0.1953125 6.0546875 C-0.13020833 4.03645833 -0.06510417 2.01822917 0 0 Z " fill="#D720BD" transform="translate(341,257)"/>
<path d="M0 0 C2.96052484 3.36423277 3.92289822 6.69159287 5 11 C4.34 11 3.68 11 3 11 C2.34 11.66 1.68 12.32 1 13 C0.34 13 -0.32 13 -1 13 C-1 12.01 -1 11.02 -1 10 C-2.65 10.66 -4.3 11.32 -6 12 C-10 7.375 -10 7.375 -10 4 C-9.34 3.01 -8.68 2.02 -8 1 C-4.4375 0.875 -4.4375 0.875 -1 1 C-0.67 0.67 -0.34 0.34 0 0 Z " fill="#D620BD" transform="translate(369,274)"/>
<path d="M0 0 C0.66 0.99 1.32 1.98 2 3 C1.67 3.33 1.34 3.66 1 4 C1.66 4.66 2.32 5.32 3 6 C3.33333333 7.33333333 3.66666667 8.66666667 4 10 C4.66 10.66 5.32 11.32 6 12 C5.67 12.99 5.34 13.98 5 15 C5.33 15.66 5.66 16.32 6 17 C5.67 17.66 5.34 18.32 5 19 C6.32 19.66 7.64 20.32 9 21 C8.34 21.99 7.68 22.98 7 24 C7.99 24.99 8.98 25.98 10 27 C7.625 28.5625 7.625 28.5625 5 30 C4.34 29.67 3.68 29.34 3 29 C3.226875 28.2575 3.45375 27.515 3.6875 26.75 C4.31496211 23.94611211 4.31496211 23.94611211 2.5 21.875 C2.005 21.25625 1.51 20.6375 1 20 C1.33 19.01 1.66 18.02 2 17 C1.39031953 15.31165408 0.71162443 13.64797236 0 12 C-2.49152542 4.52542373 -2.49152542 4.52542373 -1 1 C-0.67 0.67 -0.34 0.34 0 0 Z " fill="#D10586" transform="translate(459,587)"/>
<path d="M0 0 C0.99 0.33 1.98 0.66 3 1 C3.71706982 2.98248715 4.38290413 4.98415349 5 7 C5.66 7.66 6.32 8.32 7 9 C6.7525 9.9590625 6.7525 9.9590625 6.5 10.9375 C6.335 11.618125 6.17 12.29875 6 13 C6.99 14.485 6.99 14.485 8 16 C8 16.99 8 17.98 8 19 C8.66 19.66 9.32 20.32 10 21 C11 22 12 23 13 24 C9.37 25.98 5.74 27.96 2 30 C2 28 2 28 4 26 C5.55651488 19.2551022 4.07495352 14.95772245 1 9 C-1.09544008 4.58854719 -1.09544008 4.58854719 -0.625 1.6875 C-0.41875 1.130625 -0.2125 0.57375 0 0 Z " fill="#D90379" transform="translate(440,599)"/>
<path d="M0 0 C2.81132356 0.2959288 4.54450975 0.62584729 6.75 2.4375 C8 4 8 4 9 6 C11.04524321 6.59505999 13.09333957 6.95466781 15.1875 7.33984375 C15.785625 7.55769531 16.38375 7.77554687 17 8 C18 11 18 11 17.0625 13.1875 C16.5365625 14.0846875 16.5365625 14.0846875 16 15 C13.13667247 14.60505827 12.22490611 14.29687606 10.4375 11.9375 C9.963125 11.298125 9.48875 10.65875 9 10 C8.01 10 7.02 10 6 10 C3.3125 7.5 3.3125 7.5 1 5 C0.67 5.66 0.34 6.32 0 7 C-0.66 7 -1.32 7 -2 7 C-1.125 1.125 -1.125 1.125 0 0 Z " fill="#DF21B4" transform="translate(301,266)"/>
<path d="M0 0 C2.9375 0.8125 2.9375 0.8125 6 2 C6.33 2.99 6.66 3.98 7 5 C8.62652316 6.70586575 10.29006566 8.3777546 12 10 C11.67 10.99 11.34 11.98 11 13 C10.34 13 9.68 13 9 13 C8.67 13.66 8.34 14.32 8 15 C7.34 13.02 6.68 11.04 6 9 C5.01 9.33 4.02 9.66 3 10 C0.8125 9.0625 0.8125 9.0625 -1 8 C-2.65 9.32 -4.3 10.64 -6 12 C-5.48659616 8.20081162 -4.7920132 6.56865214 -2 4 C-0.82425289 1.90010348 -0.82425289 1.90010348 0 0 Z " fill="#E021AF" transform="translate(296,282)"/>
<path d="M0 0 C2.4375 0.6875 2.4375 0.6875 5 2 C5.625 4.5 5.625 4.5 6 7 C8.77260299 8.93798263 8.77260299 8.93798263 11 10 C10.75 12.375 10.75 12.375 10 15 C7.9375 16.3125 7.9375 16.3125 6 17 C3.97661367 14.97661367 3.20816968 13.55847696 2 11 C1.46375 10.01 0.9275 9.02 0.375 8 C-1 5 -1 5 -1 1 C-0.67 0.67 -0.34 0.34 0 0 Z " fill="#D51DB4" transform="translate(357,301)"/>
<path d="M0 0 C0.99 0.33 1.98 0.66 3 1 C3 1.33 3 1.66 3 2 C3.9075 2.28875 4.815 2.5775 5.75 2.875 C8.32202908 3.76531776 10.61346766 4.71494413 13 6 C12.67 6.66 12.34 7.32 12 8 C11.34 8 10.68 8 10 8 C10 8.66 10 9.32 10 10 C9.34 10 8.68 10 8 10 C7.67 10.66 7.34 11.32 7 12 C6.34 11.01 5.68 10.02 5 9 C5 9.66 5 10.32 5 11 C4.4225 10.690625 3.845 10.38125 3.25 10.0625 C1.15705816 9.07416636 -0.74535275 8.4831387 -3 8 C-1.125 1.125 -1.125 1.125 0 0 Z " fill="#E61B94" transform="translate(267,349)"/>
<path d="M0 0 C0.99 0.66 1.98 1.32 3 2 C3 2.66 3 3.32 3 4 C3.66 4.33 4.32 4.66 5 5 C5.75 6.875 5.75 6.875 6 9 C5.01 10.485 5.01 10.485 4 12 C4 12.99 4 13.98 4 15 C1.6875 14.875 1.6875 14.875 -1 14 C-4 9.13793103 -4 9.13793103 -4 6 C-3.34 5.34 -2.68 4.68 -2 4 C-1.30251417 2.68252676 -0.63040043 1.35085807 0 0 Z " fill="#A51DE9" transform="translate(561,316)"/>
<path d="M0 0 C0.66 0.33 1.32 0.66 2 1 C1.649375 1.5775 1.29875 2.155 0.9375 2.75 C-0.16485738 5.39565771 0.1151451 6.34543529 1 9 C1 9.66 1 10.32 1 11 C-0.32 11 -1.64 11 -3 11 C-3.33 10.34 -3.66 9.68 -4 9 C-5.98 9.33 -7.96 9.66 -10 10 C-10.99 8.35 -11.98 6.7 -13 5 C-12.01 4.01 -11.02 3.02 -10 2 C-7.69 2.66 -5.38 3.32 -3 4 C-2.01 2.68 -1.02 1.36 0 0 Z " fill="#F40951" transform="translate(282,554)"/>
<path d="M0 0 C2 1 2 1 4 3 C3.67 3.99 3.34 4.98 3 6 C2.34 6 1.68 6 1 6 C1.33 6.99 1.66 7.98 2 9 C1.01 10.485 1.01 10.485 0 12 C-0.33 12 -0.66 12 -1 12 C-1 12.99 -1 13.98 -1 15 C-1.66 15 -2.32 15 -3 15 C-2.67 15.99 -2.34 16.98 -2 18 C-2.66 18 -3.32 18 -4 18 C-4 18.66 -4 19.32 -4 20 C-4.66 19.67 -5.32 19.34 -6 19 C-6.38133299 17.0085944 -6.71325582 15.00720923 -7 13 C-7.33 12.34 -7.66 11.68 -8 11 C-4.25 8 -4.25 8 -2 8 C-2.66 6.68 -3.32 5.36 -4 4 C-2.68 2.68 -1.36 1.36 0 0 Z " fill="#A11FF3" transform="translate(604,258)"/>
<path d="M0 0 C2.25 -0.3125 2.25 -0.3125 5 0 C8.35899161 3.26302042 9.75316006 6.53215689 11 11 C10.34 11 9.68 11 9 11 C8.67 11.99 8.34 12.98 8 14 C0.14806378 5.92255125 0.14806378 5.92255125 0 0 Z " fill="#D017AC" transform="translate(400,363)"/>
<path d="M0 0 C2.125 0.375 2.125 0.375 4 1 C4 3.66666667 4 6.33333333 4 9 C4.66 9.33 5.32 9.66 6 10 C6 10.99 6 11.98 6 13 C0.7265625 16.22265625 0.7265625 16.22265625 -1 17 C-1.66 16.67 -2.32 16.34 -3 16 C-1.68 14.68 -0.36 13.36 1 12 C0.690625 11.0925 0.38125 10.185 0.0625 9.25 C-0.288125 8.1775 -0.63875 7.105 -1 6 C-1.2475 5.2575 -1.495 4.515 -1.75 3.75 C-1.8325 3.1725 -1.915 2.595 -2 2 C-1.34 1.34 -0.68 0.68 0 0 Z " fill="#CB0A96" transform="translate(479,592)"/>
<path d="M0 0 C0.66 0.33 1.32 0.66 2 1 C1.67 1.99 1.34 2.98 1 4 C2.423125 3.9690625 2.423125 3.9690625 3.875 3.9375 C7 4 7 4 9 5 C9 6.65 9 8.3 9 10 C8.38125 9.814375 7.7625 9.62875 7.125 9.4375 C4.95839822 8.76313824 4.95839822 8.76313824 3 10 C2.38125 9.2884375 2.38125 9.2884375 1.75 8.5625 C-0.182185 6.83733482 -1.48192275 6.43415125 -4 6 C-2.25 1.125 -2.25 1.125 0 0 Z " fill="#F30A52" transform="translate(265,545)"/>
<path d="M0 0 C1.98 0 3.96 0 6 0 C5.77441406 0.58265625 5.54882812 1.1653125 5.31640625 1.765625 C4.74590669 4.05727616 4.74590669 4.05727616 6.21484375 5.921875 C6.78332031 6.52515625 7.35179687 7.1284375 7.9375 7.75 C8.50339844 8.36359375 9.06929688 8.9771875 9.65234375 9.609375 C10.31943359 10.29773438 10.31943359 10.29773438 11 11 C8.92446352 11.5534764 7.15634036 12 5 12 C4.690625 11.21625 4.38125 10.4325 4.0625 9.625 C2.90085705 6.75505858 2.19866218 5.19866218 0 3 C0 2.01 0 1.02 0 0 Z " fill="#D9077F" transform="translate(406,511)"/>
<path d="M0 0 C2.36049251 2.14590229 3.61903604 4.14600782 5 7 C5.66 7.66 6.32 8.32 7 9 C7 9.66 7 10.32 7 11 C7.31478446 12.33783393 7.64587656 13.67203709 8 15 C7.21625 14.360625 6.4325 13.72125 5.625 13.0625 C3.20460719 11.01857687 3.20460719 11.01857687 1 10 C0.62243192 8.67851173 0.2981424 7.34164079 0 6 C-0.6469365 4.3255761 -1.30959426 2.65697379 -2 1 C-1.34 0.67 -0.68 0.34 0 0 Z " fill="#D51CB1" transform="translate(366,317)"/>
<path d="M0 0 C4 6 4 6 4 10 C2.68 10.33 1.36 10.66 0 11 C-1.32 9.02 -2.64 7.04 -4 5 C-2.25 1.125 -2.25 1.125 0 0 Z " fill="#D31CB6" transform="translate(387,317)"/>
<path d="M0 0 C2.58797991 1.72531994 3.8557088 2.8557088 6 5 C2.37 6.98 -1.26 8.96 -5 11 C-5 9 -5 9 -3 7 C-1.96157435 4.68351201 -0.9578025 2.35096976 0 0 Z " fill="#DD0C80" transform="translate(447,618)"/>
<path d="M0 0 C1.8125 0.5625 1.8125 0.5625 4 2 C5.78686054 5.50990464 7 8.04124604 7 12 C5.125 11.375 5.125 11.375 3 10 C1.8125 7.125 1.8125 7.125 1 4 C0.79375 3.21625 0.5875 2.4325 0.375 1.625 C0.25125 1.08875 0.1275 0.5525 0 0 Z " fill="#D9047A" transform="translate(433,581)"/>
<path d="M0 0 C-0.33 0.99 -0.66 1.98 -1 3 C-1.66 3 -2.32 3 -3 3 C-3.33 3.66 -3.66 4.32 -4 5 C-6.64 5 -9.28 5 -12 5 C-11 2 -11 2 -8.8125 0.8125 C-5.74609689 -0.07334979 -3.17561845 -0.14770318 0 0 Z " fill="#F70544" transform="translate(283,620)"/>
<path d="M0 0 C1.65 1.65 3.3 3.3 5 5 C4.01 6.485 4.01 6.485 3 8 C2.34 8 1.68 8 1 8 C0.01 8.495 0.01 8.495 -1 9 C-2.0326802 6.21176345 -2.04509293 5.1322726 -1.0625 2.25 C-0.711875 1.5075 -0.36125 0.765 0 0 Z " fill="#E51E9E" transform="translate(280,316)"/>
<path d="M0 0 C2.97 0.495 2.97 0.495 6 1 C5.01 1.66 4.02 2.32 3 3 C3.99 4.485 3.99 4.485 5 6 C4.01 6.99 3.02 7.98 2 9 C0.93347808 6.69631264 -0.06421005 4.35981813 -1 2 C-0.67 1.34 -0.34 0.68 0 0 Z " fill="#CE2CF1" transform="translate(438,56)"/>
<path d="M0 0 C4.21422242 2.88341534 5.76075855 5.04303419 7 10 C6.01 10 5.02 10 4 10 C4 8.68 4 7.36 4 6 C3.01 6.33 2.02 6.66 1 7 C0.67 4.69 0.34 2.38 0 0 Z " fill="#D9077F" transform="translate(414,523)"/>
<path d="M0 0 C1.32 0.33 2.64 0.66 4 1 C4.33 2.65 4.66 4.3 5 6 C3.68 5.01 2.36 4.02 1 3 C1 6.3 1 9.6 1 13 C0.67 13 0.34 13 0 13 C0 8.71 0 4.42 0 0 Z " fill="#EC1D80" transform="translate(29,418)"/>
<path d="M0 0 C1.32 0.33 2.64 0.66 4 1 C4.33 2.32 4.66 3.64 5 5 C3.35 5.33 1.7 5.66 0 6 C0 4.02 0 2.04 0 0 Z " fill="#F10B59" transform="translate(281,528)"/>
<path d="M0 0 C0.33 0 0.66 0 1 0 C1.1953125 2.01822917 1.390625 4.03645833 1.5859375 6.0546875 C1.86374749 8.22668245 1.86374749 8.22668245 4 10 C4 10.66 4 11.32 4 12 C3.34 12 2.68 12 2 12 C1.67 12.99 1.34 13.98 1 15 C0.63536268 13.25215171 0.2836922 11.50159498 -0.0625 9.75 C-0.25972656 8.77546875 -0.45695312 7.8009375 -0.66015625 6.796875 C-0.98397535 4.131881 -0.85503199 2.51128277 0 0 Z " fill="#E9219B" transform="translate(19,263)"/>
<path d="M0 0 C1.65 0 3.3 0 5 0 C5.33 1.98 5.66 3.96 6 6 C2.535 4.02 2.535 4.02 -1 2 C-0.67 1.34 -0.34 0.68 0 0 Z " fill="#F60245" transform="translate(319,672)"/>
<path d="M0 0 C1.32 0.99 2.64 1.98 4 3 C3.67 3.99 3.34 4.98 3 6 C1.68 5.67 0.36 5.34 -1 5 C-1.33 3.68 -1.66 2.36 -2 1 C-1.34 0.67 -0.68 0.34 0 0 Z " fill="#D921BF" transform="translate(336,253)"/>
<path d="M0 0 C2.97 0.495 2.97 0.495 6 1 C4.35 2.32 2.7 3.64 1 5 C0.34 4.67 -0.32 4.34 -1 4 C-0.67 2.68 -0.34 1.36 0 0 Z " fill="#D40E91" transform="translate(463,612)"/>
<path d="M0 0 C1.32 0 2.64 0 4 0 C4 1.32 4 2.64 4 4 C3.34 4 2.68 4 2 4 C1.67 4.66 1.34 5.32 1 6 C0.34 4.35 -0.32 2.7 -1 1 C-0.67 0.67 -0.34 0.34 0 0 Z " fill="#B521E2" transform="translate(528,258)"/>
<path d="M0 0 C0.66 0.66 1.32 1.32 2 2 C0.68 4.64 -0.64 7.28 -2 10 C-3.16909807 6.49270578 -2.85056945 4.55692677 -2 1 C-1.34 0.67 -0.68 0.34 0 0 Z " fill="#E32ACE" transform="translate(256,5)"/>
<path d="" fill="#D521BA" transform="translate(0,0)"/>
</svg>
