<!DOCTYPE svg PUBLIC "-//W3C//DTD SVG 1.1//EN" "http://www.w3.org/Graphics/SVG/1.1/DTD/svg11.dtd">
<!-- Uploaded to: SVG Repo, www.svgrepo.com, Transformed by: SVG Repo Mixer Tools -->
<svg width="800px" height="800px" viewBox="0 0 48 48" id="b" xmlns="http://www.w3.org/2000/svg" fill="#ffffff" stroke="#ffffff" stroke-width="2.352">
<g id="SVGRepo_bgCarrier" stroke-width="0"/>
<g id="SVGRepo_tracerCarrier" stroke-linecap="round" stroke-linejoin="round"/>
<g id="SVGRepo_iconCarrier">
<defs>
<style>.c{fill:none;stroke:#ffffff;stroke-linecap:round;stroke-linejoin:round;}</style>
</defs>
<path class="c" d="m10.7616,42.3349h21.2151c5.8118,0,10.5233-4.7114,10.5233-10.5233V5.6651h-21.2081c-2.9059,0-5.2616,2.3557-5.2616,5.2616l-.007,5.1001"/>
<path class="c" d="m10.7616,16.0268h5.2616v21.0465c0,2.904-2.3577,5.2616-5.2616,5.2616h0c-2.904,0-5.2616-2.3577-5.2616-5.2616v-15.7849c0-2.904,2.3577-5.2616,5.2616-5.2616Z"/>
<line class="c" x1="5.5" y1="25.3909" x2="16.0233" y2="25.3909"/>
<line class="c" x1="22.437" y1="25.3909" x2="35.7983" y2="25.3909"/>
<line class="c" x1="22.437" y1="32.177" x2="35.7983" y2="32.177"/>
<rect class="c" x="22.437" y="13.3152" width="5.8377" height="5.8377"/>
</g>
</svg>