<!DOCTYPE svg PUBLIC "-//W3C//DTD SVG 1.1//EN" "http://www.w3.org/Graphics/SVG/1.1/DTD/svg11.dtd">
<!-- Uploaded to: SVG Repo, www.svgrepo.com, Transformed by: SVG Repo Mixer Tools -->
<svg fill="#ffffff" height="800px" width="800px" version="1.1" id="Layer_1" xmlns="http://www.w3.org/2000/svg" xmlns:xlink="http://www.w3.org/1999/xlink" viewBox="0 0 512 512" xml:space="preserve" stroke="#ffffff">
<g id="SVGRepo_bgCarrier" stroke-width="0"/>
<g id="SVGRepo_tracerCarrier" stroke-linecap="round" stroke-linejoin="round"/>
<g id="SVGRepo_iconCarrier"> <g> <g> <g> <circle cx="256.001" cy="214.593" r="11.167"/> <path d="M430.203,427.132c-3.825,0-7.557,0.169-11.185,0.489l-66.635-54.327c33.451-11.38,56.976-29.357,56.976-53.364 c0-22.328-20.354-39.434-50.111-50.872c2.533-5.318,3.954-11.258,3.954-17.525V168.34c0-35.569-25.724-61.24-63.699-65.086 c5.363-8.526,8.423-19.103,8.423-30.949V52.763C307.926,22.191,287.615,0,259.63,0h-7.258c-27.985,0-48.297,22.191-48.297,52.763 v19.542c0,11.846,3.06,22.423,8.423,30.949c-37.975,3.847-63.699,29.518-63.699,65.086v83.193c0,6.267,1.423,12.206,3.954,17.525 c-29.756,11.439-50.11,28.544-50.11,50.872c0,24.008,23.523,41.984,56.974,53.364l-66.635,54.327 c-3.627-0.322-7.36-0.489-11.185-0.489c-40.107,0-70.351,18.242-70.351,42.434c0,24.192,30.244,42.434,70.351,42.434 s70.351-18.242,70.351-42.434c0-15.373-12.225-28.335-31.422-35.748l65.367-53.293c18.527,3.988,38.65,6.334,58.74,6.971v40.124 c-34.423,3.042-59.184,20.058-59.184,41.946c0,24.192,30.244,42.434,70.351,42.434s70.351-18.242,70.351-42.434 c0-21.888-24.761-38.904-59.184-41.946v-40.124c20.09-0.636,40.213-2.984,58.74-6.971l65.366,53.293 c-19.197,7.414-31.422,20.375-31.422,35.748c0,24.192,30.244,42.434,70.351,42.434c40.107,0,70.351-18.242,70.351-42.434 C500.553,445.374,470.31,427.132,430.203,427.132z M129.815,469.566c0,8.195-18.706,20.1-48.017,20.1 c-29.312,0-48.017-11.905-48.017-20.1c0-8.195,18.706-20.1,48.017-20.1C111.11,449.466,129.815,461.371,129.815,469.566z M226.408,52.763c0-15.147,8.028-30.43,25.963-30.43h7.258c17.935,0,25.963,15.283,25.963,30.43v19.542 c0,15.147-8.028,30.43-25.963,30.43h-7.258c-17.935,0-25.963-15.283-25.963-30.43V52.763z M273.09,125.069l-17.09,32.201 l-17.09-32.201H273.09z M171.133,168.34c0-26.515,20.32-40.028,42.773-42.746l32.231,60.73c1.936,3.65,5.732,5.932,9.864,5.932 s7.927-2.281,9.864-5.932l32.231-60.73c22.453,2.717,42.773,16.231,42.773,42.746v83.193c0,10.314-8.461,18.704-18.863,18.704 c-0.23,0-0.456,0.021-0.682,0.035V247.96v-50.865c0-6.167-5.001-11.167-11.167-11.167s-11.167,4.999-11.167,11.167v44.58 l-43.014,26.113l-42.971-26.001v-44.692c0-6.167-5-11.167-11.167-11.167s-11.167,4.999-11.167,11.167v50.988v22.189 c-0.224-0.013-0.448-0.035-0.676-0.035c-10.401,0-18.863-8.391-18.863-18.704V168.34z M298.988,267.802v41.43h-85.985v-41.341 h0.001l37.2,22.509c3.56,2.153,8.021,2.151,11.576-0.009L298.988,267.802z M304.018,469.566c0,8.195-18.706,20.1-48.017,20.1 s-48.017-11.905-48.017-20.1c0-8.195,18.706-20.1,48.017-20.1S304.018,461.371,304.018,469.566z M255.999,365.342 c-81.176,0-131.023-26.45-131.023-45.412c0-10.672,15.804-23.709,44.082-33.074c6.14,3.625,13.296,5.715,20.936,5.715 c0.228,0,0.451-0.02,0.676-0.035v27.862c0,6.167,5,11.167,11.167,11.167h108.318c6.166,0,11.167-4.999,11.167-11.167v-27.862 c0.227,0.013,0.452,0.035,0.682,0.035c7.64,0,14.796-2.089,20.937-5.715c28.278,9.365,44.083,22.402,44.083,33.074 C387.024,338.893,337.178,365.342,255.999,365.342z M430.203,489.666c-29.312,0-48.017-11.905-48.017-20.1 c0-8.195,18.706-20.1,48.017-20.1c29.312,0,48.017,11.905,48.017,20.1C478.221,477.761,459.515,489.666,430.203,489.666z"/> </g> </g> </g> </g>
</svg>