<!DOCTYPE svg PUBLIC "-//W3C//DTD SVG 1.1//EN" "http://www.w3.org/Graphics/SVG/1.1/DTD/svg11.dtd">
<!-- Uploaded to: SVG Repo, www.svgrepo.com, Transformed by: SVG Repo Mixer Tools -->
<svg fill="#ffffff" width="800px" height="800px" viewBox="0 0 64 64" xmlns="http://www.w3.org/2000/svg" stroke="#ffffff">
<g id="SVGRepo_bgCarrier" stroke-width="0"/>
<g id="SVGRepo_tracerCarrier" stroke-linecap="round" stroke-linejoin="round"/>
<g id="SVGRepo_iconCarrier"> <g data-name="11 tablet wishlist" id="_11_tablet_wishlist"> <path d="M54.5,3.51H9.5a5.96,5.96,0,0,0-6,5.91V32.98a5.96,5.96,0,0,0,6,5.91H28.72a2.474,2.474,0,0,0-.15.46,5.141,5.141,0,0,0,.29,2.45l.09.28c.61,2.24,1.29,4.42,1.88,6.27l.04.12a9.6,9.6,0,0,0,2.19,4.24c.51.49,1.03.99,1.55,1.48a2.018,2.018,0,0,0-1.27,1.86v2.44a2.006,2.006,0,0,0,2,2H54.15a2.006,2.006,0,0,0,2-2V56.05a2.006,2.006,0,0,0-2-2H53.9c.35-1.13.72-2.29,1.14-3.41,1.12-3.02,1.09-6.14,1.07-9.16-.01-.93-.01-1.89.02-2.83a5.917,5.917,0,0,0,4.37-5.67V9.42A5.96,5.96,0,0,0,54.5,3.51Zm-.35,52.54v2.44H35.34V56.05Zm0-18.26c-.06,1.24-.05,2.5-.04,3.71.02,2.97.05,5.77-.95,8.44-.48,1.28-.88,2.59-1.28,3.85l-.08.26H37.35c-.97-.93-1.94-1.85-2.91-2.79a8.119,8.119,0,0,1-1.67-3.39l-.04-.13c-.58-1.82-1.25-3.98-1.86-6.2l-.09-.31a3.664,3.664,0,0,1-.25-1.51,1.261,1.261,0,0,1,.85-.92h.01a1.163,1.163,0,0,1,.18-.04,1.358,1.358,0,0,1,.68.08,1.137,1.137,0,0,1,.62.5,5.331,5.331,0,0,1,.42.96c.08.2.15.41.23.59.1.25.18.5.26.75a9.41,9.41,0,0,0,.71,1.71,1.711,1.711,0,0,0,1.96.96c.39-.12,1.04-.51,1.08-1.76.03-1.55.06-3.09.08-4.64q.045-2.94.12-5.89c.07-2.83.17-5.16.31-7.28l.02-.34a1.266,1.266,0,0,1,1.26-1.22,1.359,1.359,0,0,1,.91.35,1.114,1.114,0,0,1,.35.81V37.77a1,1,0,0,0,2,0V31.95c0-.52.57-.94,1.26-.94a1.485,1.485,0,0,1,.95.31.9.9,0,0,1,.31.68v5.77a1,1,0,0,0,2,0V33.03a1.075,1.075,0,0,1,.15-.54,1.4,1.4,0,0,1,2.02-.28,1.793,1.793,0,0,1,.22.28,1.143,1.143,0,0,1,.14.54v4.74a1,1,0,0,0,2,0V34.75a1.209,1.209,0,0,1,1.26-1.15,1.345,1.345,0,0,1,.92.36,1.1,1.1,0,0,1,.34.79ZM36.16,23.65H35.5V20.24l8-.02v3.42H42.49a3.046,3.046,0,0,0-.89-1.56,3.327,3.327,0,0,0-2.28-.9A3.215,3.215,0,0,0,36.16,23.65ZM54.5,30.04a.982.982,0,0,1-1,.96H50.84c-.07-.07-.11-.16-.18-.22a3.286,3.286,0,0,0-2.3-.91,3.383,3.383,0,0,0-1.77.51,2.694,2.694,0,0,0-.5-.57,2.783,2.783,0,0,0-.41-.29,1.91,1.91,0,0,0-.28-.15c-.05-.02-.09-.04-.14-.06a3.578,3.578,0,0,0-1.42-.3,2.112,2.112,0,0,0-.26.02c-.07.01-.14.01-.21.02a2.7,2.7,0,0,0-.28.04,2.742,2.742,0,0,0-.51.15v-3.6h.92a2,2,0,0,0,2-1.99V20.22a2,2,0,0,0-2-1.98h-8a2,2,0,0,0-2,1.98v3.43a2,2,0,0,0,2,1.99h.48c-.01.17-.02.34-.03.52s-.02.36-.03.53c-.02.38-.04.76-.05,1.14l-.03.66c-.01.38-.03.76-.04,1.15-.01.24-.02.48-.02.73-.01.21-.02.41-.02.63H10.5a.982.982,0,0,1-1-.96V10.4a.982.982,0,0,1,1-.96h43a.982.982,0,0,1,1,.96Zm4,2.94a3.88,3.88,0,0,1-2.35,3.54V34.75a3.125,3.125,0,0,0-.97-2.25,3,3,0,0,0,1.32-2.46V10.4a2.988,2.988,0,0,0-3-2.96h-43a2.988,2.988,0,0,0-3,2.96V30.04a2.988,2.988,0,0,0,3,2.96H35.71c-.04,1.63-.08,3.25-.1,4.88-.01.93-.03,1.86-.04,2.78-.06-.17-.13-.34-.2-.53-.07-.17-.14-.35-.2-.52a7.41,7.41,0,0,0-.58-1.3,3.365,3.365,0,0,0-3.25-1.54,2.59,2.59,0,0,0-.52.12H9.5a3.955,3.955,0,0,1-4-3.91V9.42a3.955,3.955,0,0,1,4-3.91h45a3.955,3.955,0,0,1,4,3.91Z"/> <path d="M33.5,34.95a1,1,0,0,1-1,1h-2a1,1,0,0,1,0-2h2A1,1,0,0,1,33.5,34.95Z"/> <path d="M20.5,14.33a1,1,0,0,1-1,1h-5a1,1,0,0,1,0-2h5A1,1,0,0,1,20.5,14.33Z"/> <path d="M20.5,20.22a1,1,0,0,1-1,1h-5a1,1,0,0,1,0-2h5A1,1,0,0,1,20.5,20.22Z"/> <path d="M20.5,26.11a1,1,0,0,1-1,1h-5a1,1,0,0,1,0-2h5A1,1,0,0,1,20.5,26.11Z"/> <path d="M30.2,13.08l-3,2.94a.99.99,0,0,1-1.4,0l-2-1.96a1.008,1.008,0,0,1-.01-1.42,1,1,0,0,1,1.41-.01l1.3,1.28,2.3-2.26a1,1,0,0,1,1.41.01A1.008,1.008,0,0,1,30.2,13.08Z"/> <path d="M30.2,18.97l-3,2.94a.99.99,0,0,1-1.4,0l-2-1.96a1,1,0,0,1,1.4-1.43l1.3,1.28,2.3-2.26a1,1,0,0,1,1.41.01A1.008,1.008,0,0,1,30.2,18.97Z"/> <path d="M30.2,24.86l-3,2.94a.99.99,0,0,1-1.4,0l-2-1.96a1,1,0,0,1,1.4-1.43l1.3,1.28,2.3-2.26a1,1,0,0,1,1.41.01A1.008,1.008,0,0,1,30.2,24.86Z"/> </g> </g>
</svg>